<mxfile host="app.diagrams.net" agent="Mozilla/5.0 (Windows NT 10.0; Win64; x64) AppleWebKit/537.36 (KHTML, like Gecko) Chrome/131.0.0.0 Safari/537.36" version="25.0.3">
  <diagram name="Page-1" id="hF0U2RiDOrWzBpCi9q9W">
    <mxGraphModel dx="2899" dy="1066" grid="1" gridSize="10" guides="1" tooltips="1" connect="1" arrows="1" fold="1" page="1" pageScale="1" pageWidth="850" pageHeight="1100" math="0" shadow="0">
      <root>
        <mxCell id="0" />
        <mxCell id="1" parent="0" />
        <mxCell id="k3mfBi_2NjUexspn9wHr-6" style="edgeStyle=orthogonalEdgeStyle;rounded=0;orthogonalLoop=1;jettySize=auto;html=1;entryX=0.5;entryY=0;entryDx=0;entryDy=0;" edge="1" parent="1" source="k3mfBi_2NjUexspn9wHr-1" target="k3mfBi_2NjUexspn9wHr-2">
          <mxGeometry relative="1" as="geometry" />
        </mxCell>
        <mxCell id="k3mfBi_2NjUexspn9wHr-1" value="&lt;font style=&quot;font-size: 24px;&quot;&gt;start&lt;/font&gt;" style="strokeWidth=2;html=1;shape=mxgraph.flowchart.start_1;whiteSpace=wrap;" vertex="1" parent="1">
          <mxGeometry x="-700" y="60" width="100" height="60" as="geometry" />
        </mxCell>
        <mxCell id="k3mfBi_2NjUexspn9wHr-9" style="edgeStyle=orthogonalEdgeStyle;rounded=0;orthogonalLoop=1;jettySize=auto;html=1;" edge="1" parent="1" source="k3mfBi_2NjUexspn9wHr-2" target="k3mfBi_2NjUexspn9wHr-5">
          <mxGeometry relative="1" as="geometry" />
        </mxCell>
        <mxCell id="k3mfBi_2NjUexspn9wHr-2" value="input n" style="shape=parallelogram;perimeter=parallelogramPerimeter;whiteSpace=wrap;html=1;fixedSize=1;" vertex="1" parent="1">
          <mxGeometry x="-750" y="160" width="200" height="40" as="geometry" />
        </mxCell>
        <mxCell id="k3mfBi_2NjUexspn9wHr-15" style="edgeStyle=orthogonalEdgeStyle;rounded=0;orthogonalLoop=1;jettySize=auto;html=1;" edge="1" parent="1" source="k3mfBi_2NjUexspn9wHr-4" target="k3mfBi_2NjUexspn9wHr-13">
          <mxGeometry relative="1" as="geometry" />
        </mxCell>
        <mxCell id="k3mfBi_2NjUexspn9wHr-4" value="if (n &amp;lt;= 1)&amp;nbsp;" style="rhombus;whiteSpace=wrap;html=1;" vertex="1" parent="1">
          <mxGeometry x="-397.5" y="155" width="115" height="50" as="geometry" />
        </mxCell>
        <mxCell id="k3mfBi_2NjUexspn9wHr-10" style="edgeStyle=orthogonalEdgeStyle;rounded=0;orthogonalLoop=1;jettySize=auto;html=1;entryX=0.5;entryY=0;entryDx=0;entryDy=0;" edge="1" parent="1" source="k3mfBi_2NjUexspn9wHr-5" target="k3mfBi_2NjUexspn9wHr-7">
          <mxGeometry relative="1" as="geometry" />
        </mxCell>
        <mxCell id="k3mfBi_2NjUexspn9wHr-5" value="printFibonacciSeries(n)" style="verticalLabelPosition=bottom;verticalAlign=top;html=1;shape=process;whiteSpace=wrap;rounded=1;size=0.14;arcSize=6;" vertex="1" parent="1">
          <mxGeometry x="-718" y="240" width="136" height="30" as="geometry" />
        </mxCell>
        <mxCell id="k3mfBi_2NjUexspn9wHr-7" value="output&lt;div&gt;&quot;Sum&amp;nbsp; =&quot;, fibonacciSum(n)&lt;/div&gt;" style="shape=parallelogram;perimeter=parallelogramPerimeter;whiteSpace=wrap;html=1;fixedSize=1;" vertex="1" parent="1">
          <mxGeometry x="-750" y="340" width="200" height="40" as="geometry" />
        </mxCell>
        <mxCell id="k3mfBi_2NjUexspn9wHr-8" value="&lt;font style=&quot;font-size: 24px;&quot;&gt;end&lt;/font&gt;" style="strokeWidth=2;html=1;shape=mxgraph.flowchart.start_1;whiteSpace=wrap;" vertex="1" parent="1">
          <mxGeometry x="-700" y="450" width="100" height="60" as="geometry" />
        </mxCell>
        <mxCell id="k3mfBi_2NjUexspn9wHr-11" style="edgeStyle=orthogonalEdgeStyle;rounded=0;orthogonalLoop=1;jettySize=auto;html=1;entryX=0.5;entryY=0;entryDx=0;entryDy=0;entryPerimeter=0;" edge="1" parent="1" source="k3mfBi_2NjUexspn9wHr-7" target="k3mfBi_2NjUexspn9wHr-8">
          <mxGeometry relative="1" as="geometry" />
        </mxCell>
        <mxCell id="k3mfBi_2NjUexspn9wHr-14" style="edgeStyle=orthogonalEdgeStyle;rounded=0;orthogonalLoop=1;jettySize=auto;html=1;entryX=0.5;entryY=0;entryDx=0;entryDy=0;" edge="1" parent="1" source="k3mfBi_2NjUexspn9wHr-12" target="k3mfBi_2NjUexspn9wHr-4">
          <mxGeometry relative="1" as="geometry" />
        </mxCell>
        <mxCell id="k3mfBi_2NjUexspn9wHr-12" value="fibonacci(n)" style="strokeWidth=2;html=1;shape=mxgraph.flowchart.start_1;whiteSpace=wrap;" vertex="1" parent="1">
          <mxGeometry x="-425" y="60" width="170" height="50" as="geometry" />
        </mxCell>
        <mxCell id="k3mfBi_2NjUexspn9wHr-13" value="&lt;font style=&quot;font-size: 16px;&quot;&gt;return 1&lt;/font&gt;" style="strokeWidth=2;html=1;shape=mxgraph.flowchart.start_1;whiteSpace=wrap;" vertex="1" parent="1">
          <mxGeometry x="-240" y="230" width="92.5" height="50" as="geometry" />
        </mxCell>
        <mxCell id="k3mfBi_2NjUexspn9wHr-16" value="&lt;font style=&quot;font-size: 16px;&quot;&gt;return fibonacci(n - 1) + fibonacci(n -2)&lt;/font&gt;" style="strokeWidth=2;html=1;shape=mxgraph.flowchart.start_1;whiteSpace=wrap;" vertex="1" parent="1">
          <mxGeometry x="-438.12" y="325" width="196.25" height="70" as="geometry" />
        </mxCell>
        <mxCell id="k3mfBi_2NjUexspn9wHr-17" style="edgeStyle=orthogonalEdgeStyle;rounded=0;orthogonalLoop=1;jettySize=auto;html=1;entryX=0.5;entryY=0;entryDx=0;entryDy=0;entryPerimeter=0;" edge="1" parent="1" source="k3mfBi_2NjUexspn9wHr-4" target="k3mfBi_2NjUexspn9wHr-16">
          <mxGeometry relative="1" as="geometry" />
        </mxCell>
        <mxCell id="k3mfBi_2NjUexspn9wHr-20" style="edgeStyle=orthogonalEdgeStyle;rounded=0;orthogonalLoop=1;jettySize=auto;html=1;entryX=0.5;entryY=0;entryDx=0;entryDy=0;" edge="1" parent="1" source="k3mfBi_2NjUexspn9wHr-18" target="k3mfBi_2NjUexspn9wHr-19">
          <mxGeometry relative="1" as="geometry" />
        </mxCell>
        <mxCell id="k3mfBi_2NjUexspn9wHr-18" value="printFibonacciSeries(n)" style="strokeWidth=2;html=1;shape=mxgraph.flowchart.start_1;whiteSpace=wrap;" vertex="1" parent="1">
          <mxGeometry x="-80" y="65" width="170" height="50" as="geometry" />
        </mxCell>
        <mxCell id="k3mfBi_2NjUexspn9wHr-23" style="edgeStyle=orthogonalEdgeStyle;rounded=0;orthogonalLoop=1;jettySize=auto;html=1;entryX=0.5;entryY=0;entryDx=0;entryDy=0;" edge="1" parent="1" source="k3mfBi_2NjUexspn9wHr-19" target="k3mfBi_2NjUexspn9wHr-21">
          <mxGeometry relative="1" as="geometry" />
        </mxCell>
        <mxCell id="k3mfBi_2NjUexspn9wHr-19" value="output&lt;br&gt;&quot;Series = &quot;" style="shape=parallelogram;perimeter=parallelogramPerimeter;whiteSpace=wrap;html=1;fixedSize=1;" vertex="1" parent="1">
          <mxGeometry x="-95" y="160" width="200" height="40" as="geometry" />
        </mxCell>
        <mxCell id="k3mfBi_2NjUexspn9wHr-24" style="edgeStyle=orthogonalEdgeStyle;rounded=0;orthogonalLoop=1;jettySize=auto;html=1;entryX=0.5;entryY=0;entryDx=0;entryDy=0;" edge="1" parent="1" source="k3mfBi_2NjUexspn9wHr-21" target="k3mfBi_2NjUexspn9wHr-22">
          <mxGeometry relative="1" as="geometry" />
        </mxCell>
        <mxCell id="k3mfBi_2NjUexspn9wHr-21" value="for (i &amp;lt; n, i++)" style="rhombus;whiteSpace=wrap;html=1;" vertex="1" parent="1">
          <mxGeometry x="-52.5" y="240" width="115" height="50" as="geometry" />
        </mxCell>
        <mxCell id="k3mfBi_2NjUexspn9wHr-26" style="edgeStyle=orthogonalEdgeStyle;rounded=0;orthogonalLoop=1;jettySize=auto;html=1;entryX=0.5;entryY=0;entryDx=0;entryDy=0;" edge="1" parent="1" source="k3mfBi_2NjUexspn9wHr-22" target="k3mfBi_2NjUexspn9wHr-25">
          <mxGeometry relative="1" as="geometry" />
        </mxCell>
        <mxCell id="k3mfBi_2NjUexspn9wHr-22" value="output fibonacci(i)" style="shape=parallelogram;perimeter=parallelogramPerimeter;whiteSpace=wrap;html=1;fixedSize=1;" vertex="1" parent="1">
          <mxGeometry x="70" y="325" width="200" height="40" as="geometry" />
        </mxCell>
        <mxCell id="k3mfBi_2NjUexspn9wHr-30" style="edgeStyle=orthogonalEdgeStyle;rounded=0;orthogonalLoop=1;jettySize=auto;html=1;entryX=0.5;entryY=0;entryDx=0;entryDy=0;" edge="1" parent="1" source="k3mfBi_2NjUexspn9wHr-25" target="k3mfBi_2NjUexspn9wHr-29">
          <mxGeometry relative="1" as="geometry" />
        </mxCell>
        <mxCell id="k3mfBi_2NjUexspn9wHr-38" style="edgeStyle=orthogonalEdgeStyle;rounded=0;orthogonalLoop=1;jettySize=auto;html=1;entryX=1;entryY=1;entryDx=0;entryDy=0;" edge="1" parent="1" source="k3mfBi_2NjUexspn9wHr-25" target="k3mfBi_2NjUexspn9wHr-21">
          <mxGeometry relative="1" as="geometry" />
        </mxCell>
        <mxCell id="k3mfBi_2NjUexspn9wHr-25" value="for (i &amp;lt; n, i++)" style="rhombus;whiteSpace=wrap;html=1;" vertex="1" parent="1">
          <mxGeometry x="112.5" y="400" width="115" height="50" as="geometry" />
        </mxCell>
        <mxCell id="k3mfBi_2NjUexspn9wHr-27" value="&lt;font style=&quot;font-size: 24px;&quot;&gt;end&lt;/font&gt;" style="strokeWidth=2;html=1;shape=mxgraph.flowchart.start_1;whiteSpace=wrap;" vertex="1" parent="1">
          <mxGeometry x="-45" y="500" width="100" height="60" as="geometry" />
        </mxCell>
        <mxCell id="k3mfBi_2NjUexspn9wHr-28" style="edgeStyle=orthogonalEdgeStyle;rounded=0;orthogonalLoop=1;jettySize=auto;html=1;entryX=0.5;entryY=0;entryDx=0;entryDy=0;entryPerimeter=0;" edge="1" parent="1" source="k3mfBi_2NjUexspn9wHr-21" target="k3mfBi_2NjUexspn9wHr-27">
          <mxGeometry relative="1" as="geometry" />
        </mxCell>
        <mxCell id="k3mfBi_2NjUexspn9wHr-32" style="edgeStyle=orthogonalEdgeStyle;rounded=0;orthogonalLoop=1;jettySize=auto;html=1;entryX=0.5;entryY=0;entryDx=0;entryDy=0;" edge="1" parent="1" source="k3mfBi_2NjUexspn9wHr-29" target="k3mfBi_2NjUexspn9wHr-31">
          <mxGeometry relative="1" as="geometry" />
        </mxCell>
        <mxCell id="k3mfBi_2NjUexspn9wHr-35" style="edgeStyle=orthogonalEdgeStyle;rounded=0;orthogonalLoop=1;jettySize=auto;html=1;entryX=1;entryY=1;entryDx=0;entryDy=0;" edge="1" parent="1" source="k3mfBi_2NjUexspn9wHr-29" target="k3mfBi_2NjUexspn9wHr-25">
          <mxGeometry relative="1" as="geometry" />
        </mxCell>
        <mxCell id="k3mfBi_2NjUexspn9wHr-29" value="if (i &amp;lt; n -1)" style="rhombus;whiteSpace=wrap;html=1;" vertex="1" parent="1">
          <mxGeometry x="230" y="470" width="115" height="50" as="geometry" />
        </mxCell>
        <mxCell id="k3mfBi_2NjUexspn9wHr-37" style="edgeStyle=orthogonalEdgeStyle;rounded=0;orthogonalLoop=1;jettySize=auto;html=1;entryX=1;entryY=1;entryDx=0;entryDy=0;" edge="1" parent="1" source="k3mfBi_2NjUexspn9wHr-31" target="k3mfBi_2NjUexspn9wHr-25">
          <mxGeometry relative="1" as="geometry" />
        </mxCell>
        <mxCell id="k3mfBi_2NjUexspn9wHr-31" value="output&lt;br&gt;&quot; + &quot;" style="shape=parallelogram;perimeter=parallelogramPerimeter;whiteSpace=wrap;html=1;fixedSize=1;" vertex="1" parent="1">
          <mxGeometry x="350" y="530" width="115" height="30" as="geometry" />
        </mxCell>
        <mxCell id="k3mfBi_2NjUexspn9wHr-41" style="edgeStyle=orthogonalEdgeStyle;rounded=0;orthogonalLoop=1;jettySize=auto;html=1;entryX=0.5;entryY=0;entryDx=0;entryDy=0;" edge="1" parent="1" source="k3mfBi_2NjUexspn9wHr-39" target="k3mfBi_2NjUexspn9wHr-40">
          <mxGeometry relative="1" as="geometry" />
        </mxCell>
        <mxCell id="k3mfBi_2NjUexspn9wHr-39" value="fibonacciSum(n)" style="strokeWidth=2;html=1;shape=mxgraph.flowchart.start_1;whiteSpace=wrap;" vertex="1" parent="1">
          <mxGeometry x="496.25" y="65" width="170" height="50" as="geometry" />
        </mxCell>
        <mxCell id="k3mfBi_2NjUexspn9wHr-40" value="if (n &amp;lt;= 0 )" style="rhombus;whiteSpace=wrap;html=1;" vertex="1" parent="1">
          <mxGeometry x="523.75" y="165" width="115" height="50" as="geometry" />
        </mxCell>
        <mxCell id="k3mfBi_2NjUexspn9wHr-42" value="&lt;font style=&quot;font-size: 16px;&quot;&gt;return 0&lt;/font&gt;" style="strokeWidth=2;html=1;shape=mxgraph.flowchart.start_1;whiteSpace=wrap;" vertex="1" parent="1">
          <mxGeometry x="671.25" y="245" width="92.5" height="50" as="geometry" />
        </mxCell>
        <mxCell id="k3mfBi_2NjUexspn9wHr-43" style="edgeStyle=orthogonalEdgeStyle;rounded=0;orthogonalLoop=1;jettySize=auto;html=1;entryX=0.5;entryY=0;entryDx=0;entryDy=0;entryPerimeter=0;" edge="1" parent="1" source="k3mfBi_2NjUexspn9wHr-40" target="k3mfBi_2NjUexspn9wHr-42">
          <mxGeometry relative="1" as="geometry" />
        </mxCell>
        <mxCell id="k3mfBi_2NjUexspn9wHr-44" value="&lt;font style=&quot;font-size: 16px;&quot;&gt;return fibonacci(n - 1) + fibonacciSum(n - 1)&lt;/font&gt;" style="strokeWidth=2;html=1;shape=mxgraph.flowchart.start_1;whiteSpace=wrap;" vertex="1" parent="1">
          <mxGeometry x="470" y="305" width="222.5" height="60" as="geometry" />
        </mxCell>
        <mxCell id="k3mfBi_2NjUexspn9wHr-45" style="edgeStyle=orthogonalEdgeStyle;rounded=0;orthogonalLoop=1;jettySize=auto;html=1;entryX=0.5;entryY=0;entryDx=0;entryDy=0;entryPerimeter=0;" edge="1" parent="1" source="k3mfBi_2NjUexspn9wHr-40" target="k3mfBi_2NjUexspn9wHr-44">
          <mxGeometry relative="1" as="geometry" />
        </mxCell>
      </root>
    </mxGraphModel>
  </diagram>
</mxfile>
